<?xml version="1.0" encoding="iso-8859-1"?>
<!-- Generator: Adobe Illustrator 19.0.0, SVG Export Plug-In . SVG Version: 6.00 Build 0)  -->
<svg version="1.1" id="Capa_1" xmlns="http://www.w3.org/2000/svg" xmlns:xlink="http://www.w3.org/1999/xlink" x="0px" y="0px"
	 viewBox="0 0 486 486" style="enable-background:new 0 0 486 486;" xml:space="preserve">
<g>
	<polygon style="fill:#ED664C;" points="439.9,153.1 439.9,314.3 315.5,314.3 295.5,314.3 253.4,355 253.4,314.3 208.5,314.3 
		208.5,153.1 315.5,153.1 	"/>
	<path style="fill:#ED664C;" d="M315.5,382.9v62.2c0,17.1-13.9,31.1-31.1,31.1H77.2c-17.1,0-31.1-13.9-31.1-31.1v-62.2H315.5z
		 M201.6,429.5c0-11.4-9.3-20.7-20.7-20.7s-20.7,9.3-20.7,20.7c0,11.4,9.3,20.7,20.7,20.7S201.6,441,201.6,429.5z"/>
</g>
<polygon style="fill:#FDC75B;" points="315.5,319 315.5,382.9 46.1,382.9 46.1,87.6 315.5,87.6 315.5,146.3 315.5,153.1 
	208.5,153.1 208.5,314.3 253.4,314.3 253.4,355 295.5,314.3 315.5,314.3 "/>
<g>
	<path style="fill:#ED664C;" d="M315.5,40.9v46.6H46.1V40.9C46.1,23.8,60,9.8,77.2,9.8h207.2C301.6,9.9,315.5,23.8,315.5,40.9z"/>
	<circle style="fill:#ED664C;" cx="180.8" cy="429.5" r="20.7"/>
</g>
<path d="M77.2,486h207.2c22.7,0,41.6-18.3,41.6-40.9V324h113.9c5.5,0,10.1-4.1,10.1-9.7V153.1c0-5.5-4.6-10.1-10.1-10.1H326V40.9
	C326,18.2,307.1,0,284.4,0H77.2C54.6,0,36,18.3,36,40.9V445C36,467.7,54.6,486,77.2,486z M284.4,466H77.2
	c-11.6,0-21.2-9.3-21.2-20.9V393h250v52.1C306,456.7,296.1,466,284.4,466z M430,304H295.5c-2.6,0-5.3,1.2-7.1,3L263,331.4v-17.1
	c0-5.5-4.1-10.3-9.6-10.3H219V163h211V304z M208.5,143c-5.5,0-9.5,4.6-9.5,10.1v161.2c0,5.5,4,9.7,9.5,9.7H243v31
	c0,4,2.6,7.6,6.3,9.2c1.3,0.5,2.7,0.8,4,0.8c2.5,0,5.1-1.1,7-3l39.3-38h6.4v49H56V98h250v45H208.5z M77.2,20h207.2
	C296,20,306,29.3,306,40.9V78H56V40.9C56,29.3,65.6,20,77.2,20z"/>
<path d="M147.2,56h67.4c5.5,0,10-4.5,10-10s-4.5-10-10-10h-67.4c-5.5,0-10,4.5-10,10S141.6,56,147.2,56z"/>
<path d="M180.8,398.8c-16.9,0-30.7,13.8-30.7,30.7s13.8,30.7,30.7,30.7s30.7-13.8,30.7-30.7S197.8,398.8,180.8,398.8z M180.8,440.2
	c-5.9,0-10.7-4.8-10.7-10.7c0-5.9,4.8-10.7,10.7-10.7s10.7,4.8,10.7,10.7C191.6,435.4,186.7,440.2,180.8,440.2z"/>
<path d="M325.9,269.9c-6.9,0-12.4-5.6-12.4-12.4c0-5.5-4.5-10-10-10s-9.9,4.5-9.9,10c0,14.4,9.5,26.6,22.5,30.8v1.3
	c0,5.5,4.5,10,10,10s10-4.5,10-10v-1.3c13-4.2,22.4-16.5,22.4-30.8c0-17.9-14.6-32.4-32.5-32.4c-6.9,0-12.4-5.6-12.4-12.4
	c0-6.9,5.6-12.5,12.4-12.5s12.4,5.6,12.4,12.5c0,5.5,4.5,10,10,10s10.1-4.5,10.1-10c0-14.4-9.4-26.7-22.4-30.9v-0.9
	c0-5.5-4.5-10-10-10s-10,4.5-10,10v0.9c-13,4.2-22.5,16.5-22.5,30.9c0,17.9,14.5,32.4,32.4,32.4c6.9,0,12.4,5.6,12.4,12.4
	C338.3,264.3,332.8,269.9,325.9,269.9z"/>
<g>
</g>
<g>
</g>
<g>
</g>
<g>
</g>
<g>
</g>
<g>
</g>
<g>
</g>
<g>
</g>
<g>
</g>
<g>
</g>
<g>
</g>
<g>
</g>
<g>
</g>
<g>
</g>
<g>
</g>
</svg>
